<svg version="1.1" id="Layer_1" xmlns="http://www.w3.org/2000/svg" x="0" y="0" viewBox="0 0 160 100" xml:space="preserve"><style>.st1{fill:#2671b9}</style><switch><g><path d="M8 99c-3.8 0-7-3.2-7-7V8c0-3.8 3.2-7 7-7h144c3.8 0 7 3.2 7 7v84c0 3.8-3.2 7-7 7H8z" fill-rule="evenodd" clip-rule="evenodd" fill="#fff"/><path class="st1" d="M101.1 82.6l-3.9-4.7v4.7H86V76c-1.5.4-3 .6-5 .6h-1.7v6H63l-2.8-3.9-2.8 3.9H30.7V56.2h27l2.8 3.9 2.8-3.9h95.6V7.7c0-3.7-4-6.7-7.7-6.7H8.5C4.8 1 1.8 4 1.8 7.7v26l5.2-12h10.6l3 6.9v-6.9h12.9l1.9 5.8 1.9-5.8h57.3v2.6c2.2-1.7 5-2.6 8.2-2.6h17.4l3 6.9v-6.9h10.3l3.4 5.4v-5.4h11.6v26.4h-11l-3.2-5.1v5.1h-15.7l-1.5-3.9h-3.7l-1.5 3.9h-9.3c-2.6 0-5.6-.6-8-2.4v2.4H79.1l-3.7-4.7v4.7H16l-1.5-3.9h-3.7l-1.5 3.9H2v44.3C2 96 5 99 8.7 99h142.6c3.7 0 7.7-3 7.7-6.7V80.9c-1.7 1.1-4.7 1.5-6.8 1.5h-51.1v.2z"/><path class="st1" d="M35 78.5h14.6v-3.9H39.3v-3.4h10.1v-3.9H39.3v-3.2h10.3v-3.9H35v18.3zm35.3 0L63 69.3l7.3-9h-5.4l-4.5 5.8-4.5-5.8h-5.6l7.3 9.2-7.3 9.2h5.4l4.5-5.8 4.5 5.8h5.6v-.2zm12.9-12.2c0 1.3-.9 2.1-2.4 2.1h-5.2v-4.5h5.2c1.6.2 2.4 1.1 2.4 2.4m4.3 0c0-3.6-2.4-6.2-6.2-6.2H71.2v18.2h4.5v-6h5.6c3.9.2 6.2-2.4 6.2-6m12.1 1.9h-5.2v-4.1h5.2c1.5 0 2.4.9 2.4 1.9-.2 1.1-.9 2.2-2.4 2.2m7.8 10.3l-6-6.6c3-.6 5-2.8 5-5.8 0-3.4-2.4-5.8-6.2-5.8h-9.9v18.2h4.5v-6.6H97l5.4 6.6h5zm1 0H123v-3.9h-10.3v-3.4h10.1v-3.9h-10.1v-3.2H123v-3.9h-14.6v18.3zm21.1-12.9c0-1.1.6-1.7 1.7-1.7h8l1.7-3.9h-9.5c-3.9 0-6.2 2.4-6.2 5.8s2.2 5.4 5.8 5.4h4.3c1.1 0 1.7.6 1.7 1.7s-.9 1.7-1.7 1.7h-9.5v3.9h9.3c3.9 0 6.2-2.4 6.2-5.8s-2.2-5.1-5.8-5.1h-4.3c-1-.2-1.7-.9-1.7-2m28.3-5.3l-9.5-.2c-3.9 0-6.2 2.4-6.2 5.8s2.2 5.4 5.8 5.4h4.3c1.1 0 1.7.6 1.7 1.7s-.9 1.7-1.7 1.7h-9.7v3.9h9.3c3 0 5.2-1.5 6-3.6.2-.6.4-1.3.4-2.1 0-.9-.2-1.5-.4-2.1-.9-1.9-2.6-3-5.4-3h-4.3c-1.1 0-1.7-.6-1.7-1.7s.6-1.7 1.7-1.7h8l1.7-4.1zM15.4 36.5H9.6l1.7-4.3 1.1-2.8 1.1 2.8 1.9 4.3zm3 7.5h5l-7.8-18.2H9.8L1.8 44h5l1.5-3.9h8.6l1.5 3.9zm24.3 0H47V25.8h-7.1l-3.7 10.5-.6 1.9-.6-1.9-3.7-10.5h-7.1V44h4.3V29.2l.9 2.8 4.1 12h4.1l4.3-12 .9-2.8V32c-.1 0-.1 12-.1 12zm7.8 0h14.6v-3.9H54.8v-3.4h10.1v-3.9H54.8v-3.2h10.3v-3.9H50.5V44zm27.3-10.3h-5.2v-4.1h5.2c1.5 0 2.4.9 2.4 1.9-.2 1.1-.8 2.2-2.4 2.2M85.6 44l-6-6.9c3-.6 5-2.8 5-5.8 0-3.4-2.4-5.8-6.2-5.8h-9.9v18.2H73v-6.6h2l5.4 6.6h5.2v.3zm1.1 0h4.5V25.6h-4.5V44zm16.1-14.4h4.7v-4.1h-5.2c-5.6 0-8.8 3.9-8.8 9v.5c0 5.4 3.2 9 8.4 9h.2l1.7-3.9h-1.3c-3 0-4.7-1.9-4.7-5.1v-.2c.3-3 2-5.2 5-5.2m15.5 6.9h-5.8l1.7-4.3 1.1-2.8 1.1 2.8 1.9 4.3zm3.1 7.5h5l-7.8-18.2h-5.8l-8 18.2h4.7l1.5-3.9h8.6l1.8 3.9zm23.2 0V25.8h-4.3v11.7l-1.3-1.9-6.5-9.9h-5.4V44h4.3V31.8l1.3 1.9 6.7 10.3h5.2z"/><path d="M152 2c3.3 0 6 2.7 6 6v84c0 3.3-2.7 6-6 6H8c-3.3 0-6-2.7-6-6V8c0-3.3 2.7-6 6-6h144zm0-2H8C3.6 0 0 3.6 0 8v84c0 4.4 3.6 8 8 8h144c4.4 0 8-3.6 8-8V8c0-4.4-3.6-8-8-8z" fill="#e6e6e6"/></g></switch></svg>